<svg viewBox="0 0 210 47" fill="currentColor" xmlns="http://www.w3.org/2000/svg" width="100px" height="22px">
<path d="M13.2821 3.30088C11.1601 3.30088 9.43109 3.92962 8.09502 5.26569C6.75895 6.60177 6.05162 8.25221 6.05162 10.217C6.05162 11.8675 6.68036 13.2821 7.93784 14.5396C9.19532 15.7971 11.8675 17.2903 15.9543 19.0194C18.3906 20.0411 20.1197 20.9056 21.2986 21.5343C22.3988 22.1631 23.342 22.7918 24.2065 23.4205C25.5425 24.5208 26.5642 25.6997 27.193 27.0358C27.9003 28.3719 28.2147 29.8651 28.2147 31.437C28.2147 35.3666 26.7214 38.5889 23.7349 41.1039C20.7484 43.6188 17.0546 44.9549 12.6534 44.9549C10.3742 44.9549 8.01643 44.5619 5.73725 43.6974C3.37947 42.8329 1.49326 41.7326 0 40.3965V29.7865C1.65044 33.7162 3.61525 36.7027 6.05162 38.7461C8.40939 40.7895 11.0815 41.8112 14.068 41.8112C16.583 41.8112 18.705 41.1038 20.2769 39.6106C21.8487 38.1959 22.6346 36.2311 22.6346 33.8733C22.6346 32.5373 22.3988 31.437 21.8487 30.3367C21.2986 29.315 20.434 28.2933 19.2551 27.4288C18.5478 26.9572 17.8405 26.4857 16.8974 26.0141C16.0329 25.5425 14.5396 24.9138 12.4962 24.0493C10.217 23.1062 8.48798 22.3203 7.46628 21.6915C6.36599 21.1414 5.50147 20.5126 4.71555 19.8839C3.53666 18.8622 2.59355 17.7619 2.0434 16.5044C1.49326 15.2469 1.17889 13.8323 1.17889 12.2604C1.17889 8.88095 2.35777 6.05162 4.79414 3.69385C7.15191 1.33607 10.1384 0.157185 13.6751 0.157185C15.3255 0.157185 16.8974 0.471555 18.5478 1.0217C20.1197 1.57185 21.4557 2.35777 22.4774 3.30088L26.8 0V14.1466C24.678 10.3742 22.556 7.62347 20.434 5.81584C17.9977 4.1654 15.7185 3.30088 13.2821 3.30088Z" fill="currentColor"></path>
<path d="M47.4701 39.8462C49.5136 39.8462 51.2426 39.4532 52.6573 38.7459C54.1505 38.0385 55.408 36.9382 56.5869 35.445C56.1153 38.3529 54.8578 40.6321 52.893 42.2825C50.9282 43.933 48.4918 44.7975 45.5839 44.7975C41.8115 44.7975 38.6678 43.4614 36.2314 40.7107C33.7165 37.9599 32.459 34.5019 32.459 30.4151C32.459 26.4069 33.7951 22.8702 36.4672 19.8837C39.1393 16.8972 42.283 15.3253 45.9769 15.3253C49.2778 15.3253 51.8713 16.4256 53.9147 18.7048C55.9581 20.9054 56.9798 23.7347 56.9798 27.1142H36.8602C36.7816 27.2714 36.7816 27.35 36.7816 27.5857V28.3717C36.7816 31.6726 37.8033 34.4233 39.8467 36.6239C41.8901 38.7459 44.4836 39.8462 47.4701 39.8462ZM44.9552 18.3904C43.1476 18.3904 41.5757 18.9406 40.161 20.1195C38.7464 21.2983 37.8033 22.7916 37.2531 24.835H51.164C51.164 22.8702 50.6138 21.3769 49.435 20.198C48.3347 19.0192 46.8414 18.3904 44.9552 18.3904Z" fill="currentColor"></path>
<path d="M63.7383 41.7325V22.4773L58.2368 18.9406L69.3184 14.6967V20.1981H70.6544C73.0122 17.9975 74.7412 16.6615 75.6843 16.1113C76.6275 15.5612 77.6492 15.3254 78.5137 15.3254C79.5354 15.3254 80.3999 15.6398 81.1072 16.2685C81.8146 16.8972 82.1289 17.7618 82.1289 18.7049C82.1289 19.4908 81.8931 20.2767 81.343 20.9841C80.7929 21.6914 80.0855 22.2415 79.221 22.6345L74.3483 19.648L69.3969 23.3418V41.6539H75.8415V44.1688H59.1799V41.6539H63.7383V41.7325Z" fill="currentColor"></path>
<path d="M100.284 37.0169L108.143 18.4691H102.956V15.9541H114.038V18.4691H111.13L98.9481 46.055L86.6877 18.4691H83.7798V15.9541H97.7692V18.4691H92.7393L100.284 37.0169Z" fill="currentColor"></path>
<path d="M129.677 28.0572V24.2847C129.677 22.0055 128.97 20.4337 127.477 19.5692C126.691 19.0976 125.669 18.8618 124.49 18.8618C123.547 18.8618 122.447 19.019 121.189 19.3334V25.1492H114.352C115.452 22.3985 117.338 20.1193 120.168 18.1545C122.918 16.1897 125.669 15.2466 128.42 15.2466C130.306 15.2466 131.799 15.8753 132.978 17.1328C134.157 18.3903 134.707 20.1193 134.707 22.3199V36.8595C134.707 37.9598 134.943 38.8243 135.493 39.4531C135.965 40.0818 136.751 40.3962 137.694 40.3962C138.323 40.3962 138.873 40.239 139.423 40.0032C139.973 39.7674 140.445 39.3745 140.837 38.9029C140.837 40.5534 140.287 41.8894 139.108 42.9897C137.93 44.09 136.515 44.6402 134.864 44.6402C133.528 44.6402 132.428 44.3258 131.564 43.6185C130.699 42.9111 129.992 42.0466 129.677 40.7891H128.577C127.084 42.1252 125.748 43.0683 124.49 43.6971C123.233 44.2472 121.975 44.5616 120.718 44.5616C119.067 44.5616 117.653 44.0114 116.474 42.9111C115.295 41.8108 114.745 40.3962 114.745 38.7457C114.745 37.0953 115.374 35.6806 116.631 34.3445C117.888 33.0085 119.775 31.9082 122.368 30.8079L129.677 28.0572ZM129.677 38.3528V30.1006L126.062 31.5938C123.783 32.5369 122.29 33.4014 121.504 34.266C120.718 35.1305 120.325 36.1522 120.325 37.4097C120.325 38.4314 120.718 39.2959 121.425 39.9246C122.132 40.5534 123.076 40.8677 124.333 40.8677C125.276 40.8677 126.219 40.6319 127.162 40.239C127.948 39.7674 128.813 39.1387 129.677 38.3528Z" fill="currentColor"></path>
<path d="M147.125 41.7325V22.4773L141.623 18.9406L152.705 14.6967V20.1195H154.12C156.006 18.3119 157.656 17.0544 159.071 16.3471C160.485 15.6398 161.9 15.3254 163.472 15.3254C165.908 15.3254 167.795 16.1113 169.052 17.7618C170.388 19.4122 171.017 21.6128 171.017 24.5993V41.7325H175.575V44.2474H161.036V41.7325H165.594V26.0926C165.594 24.0492 165.044 22.4773 164.022 21.377C162.922 20.2767 161.429 19.7266 159.464 19.7266C158.442 19.7266 157.342 20.0409 156.241 20.5911C155.141 21.1412 154.041 22.0058 152.862 23.106V41.7325H157.42V44.2474H142.645V41.7325H147.125Z" fill="currentColor"></path>
<path d="M179.898 20.7488L174.475 18.7054L184.928 9.90308V16.7406H195.774L193.888 19.8843H184.928V34.7383C184.928 36.6245 185.4 38.1178 186.343 39.1395C187.286 40.1612 188.543 40.7113 190.194 40.7113C191.373 40.7113 192.552 40.4755 193.573 40.0826C194.595 39.611 195.617 38.9037 196.56 37.9606C195.853 40.1612 194.674 41.8902 193.023 43.1477C191.373 44.3266 189.487 44.9553 187.207 44.9553C184.928 44.9553 183.121 44.248 181.706 42.8333C180.291 41.4186 179.584 39.5324 179.584 37.1747L179.898 20.7488Z" fill="currentColor"></path>
<path d="M209.999 39.7677C209.999 41.1038 209.528 42.3613 208.506 43.3044C207.485 44.2475 206.306 44.7977 204.891 44.7977C203.476 44.7977 202.219 44.3261 201.276 43.3044C200.254 42.3613 199.782 41.1038 199.782 39.7677C199.782 38.2745 200.254 36.9384 200.883 35.6809C201.59 34.2663 204.891 29.7865 204.891 29.7865C204.891 29.7865 208.113 34.2663 208.899 35.6809C209.449 36.9384 209.999 38.2745 209.999 39.7677Z" fill="currentColor"></path>
</svg>